<svg xmlns="http://www.w3.org/2000/svg" width="1010.086" height="1080.683" viewBox="0 0 1010.086 1080.683"><defs><style>.a{fill:#e12c2d;mix-blend-mode:screen;isolation:isolate;}.a,.b,.c{fill-rule:evenodd;}.b{fill:#fef4eb;}.c{fill:#fff;}</style></defs><g transform="translate(-921.826 13.323)"><g transform="translate(1033.426 -13.323)"><path class="a" d="M2845.374,315.016,2136.11,1024.3c195.876,195.888,513.43,195.839,709.264,0C3041.256,828.416,3041.256,510.9,2845.374,315.016Z" transform="translate(-2093.799 -155.538)"/><path class="a" d="M2043.407,1038.45a13.406,13.406,0,0,0,9.467-3.923l652.268-652.514a13.4,13.4,0,0,0,0-18.946c-89.651-89.688-208.834-139.08-335.6-139.08s-245.942,49.392-335.6,139.08h0c-185.05,185.123-185.05,486.334,0,671.46A13.406,13.406,0,0,0,2043.407,1038.45ZM2676.6,372.676l-633.052,633.293c-165.222-175.34-162.112-452.447,9.326-623.957,84.6-84.628,197.058-131.234,316.665-131.234C2484.679,250.779,2593.192,293.965,2676.6,372.676Z" transform="translate(-1983.413 -113.837)"/><path class="b" d="M1910.893,1640.333a2.638,2.638,0,0,0,1.886-.781l270.94-271.048a2.667,2.667,0,0,0-3.772-3.771l-270.94,271.053a2.664,2.664,0,0,0,1.886,4.547Zm-56.14,34.426a2.671,2.671,0,0,0,1.886-.775l293.515-293.65a2.665,2.665,0,1,0-3.766-3.771l-293.521,293.65a2.661,2.661,0,0,0,1.886,4.546Zm144.587-98.413a2.669,2.669,0,0,0,1.886-.781l222.911-223.015a2.667,2.667,0,0,0-3.771-3.771L1997.455,1571.8a2.664,2.664,0,0,0,1.886,4.547Z" transform="translate(-1963.683 -628.757)"/><path class="b" d="M3006.636,427.443a1.846,1.846,0,0,0,1.3-.537l266.848-266.748a1.834,1.834,0,1,0-2.6-2.593L3005.335,424.313a1.834,1.834,0,0,0,1.3,3.13Zm-38.669,23.693a1.827,1.827,0,0,0,1.3-.537L3236.11,183.851a1.835,1.835,0,0,0-2.6-2.594L2966.666,448.007a1.833,1.833,0,0,0,1.3,3.129Zm99.588-67.734a1.826,1.826,0,0,0,1.3-.536L3335.7,116.117a1.834,1.834,0,1,0-2.595-2.593L3066.255,380.273a1.833,1.833,0,0,0,1.3,3.129Z" transform="translate(-2474.038 -62.986)"/><path class="b" d="M2975.372,259.962a42.3,42.3,0,0,0,29.907-12.286,41.875,41.875,0,0,0,0-59.424,42.541,42.541,0,0,0-59.814,0h0a41.874,41.874,0,0,0,0,59.424,42.316,42.316,0,0,0,29.906,12.286Zm0-73.377a31.607,31.607,0,0,1,22.342,9.18,31.279,31.279,0,0,1,0,44.4,31.781,31.781,0,0,1-44.684,0,31.29,31.29,0,0,1,0-44.4h0A31.611,31.611,0,0,1,2975.372,186.584Z" transform="translate(-2458.906 -91.837)"/><path class="b" d="M2117.506-12.265a4.886,4.886,0,0,0-6.909,0,4.885,4.885,0,0,0,0,6.908,4.886,4.886,0,0,0,6.909,0,4.882,4.882,0,0,0,1.433-3.455,4.882,4.882,0,0,0-1.433-3.455ZM2191.568-86.4a4.884,4.884,0,0,0-6.905,0,4.884,4.884,0,0,0,0,6.905,4.884,4.884,0,0,0,6.905,0A4.875,4.875,0,0,0,2193-82.944a4.876,4.876,0,0,0-1.435-3.456Zm37.029-37.067a4.877,4.877,0,0,0-3.451-1.431,4.876,4.876,0,0,0-3.451,1.431,4.9,4.9,0,0,0,0,6.912,4.877,4.877,0,0,0,3.451,1.431,4.878,4.878,0,0,0,3.451-1.431,4.886,4.886,0,0,0,0-6.913ZM2009.442,27.839a4.877,4.877,0,1,0,1.436,3.455,4.884,4.884,0,0,0-1.436-3.455Zm37.033-37.067a4.886,4.886,0,0,0-6.909,0,4.886,4.886,0,0,0,0,6.909,4.886,4.886,0,0,0,6.909,0,4.884,4.884,0,0,0,1.434-3.456,4.884,4.884,0,0,0-1.433-3.456ZM2083.5-46.3a4.884,4.884,0,0,0-6.906,0,4.884,4.884,0,0,0,0,6.905,4.884,4.884,0,0,0,6.906,0,4.878,4.878,0,0,0,1.436-3.456A4.878,4.878,0,0,0,2083.5-46.3Zm37.033-37.067a4.884,4.884,0,0,0-6.905,0,4.884,4.884,0,0,0,0,6.905,4.884,4.884,0,0,0,6.905,0,4.876,4.876,0,0,0,1.436-3.456,4.876,4.876,0,0,0-1.436-3.456Zm37.033-37.067a4.885,4.885,0,0,0-6.909,0,4.885,4.885,0,0,0,0,6.909,4.886,4.886,0,0,0,6.909,0,4.886,4.886,0,0,0,0-6.909ZM1975.445-6.192a4.884,4.884,0,0,0-6.905,0,4.884,4.884,0,0,0,0,6.905,4.884,4.884,0,0,0,6.905,0,4.876,4.876,0,0,0,1.436-3.456,4.876,4.876,0,0,0-1.436-3.455Zm37.033-37.067a4.886,4.886,0,0,0-6.909,0,4.886,4.886,0,0,0,0,6.909,4.886,4.886,0,0,0,6.909,0,4.883,4.883,0,0,0,1.434-3.457,4.883,4.883,0,0,0-1.434-3.457Zm37.029-37.067a4.883,4.883,0,0,0-6.905,0,4.884,4.884,0,0,0,0,6.905,4.883,4.883,0,0,0,6.905,0,4.876,4.876,0,0,0,1.436-3.456,4.877,4.877,0,0,0-1.436-3.456Zm37.033-37.067a4.885,4.885,0,0,0-6.908,0,4.885,4.885,0,0,0,0,6.908,4.885,4.885,0,0,0,6.908,0,4.882,4.882,0,0,0,1.434-3.456,4.882,4.882,0,0,0-1.434-3.456Zm74.063-74.135a4.877,4.877,0,0,0-3.451-1.431,4.877,4.877,0,0,0-3.451,1.431,4.886,4.886,0,0,0,0,6.911,4.878,4.878,0,0,0,3.451,1.431,4.878,4.878,0,0,0,3.451-1.431,4.9,4.9,0,0,0,0-6.914ZM1941.449-40.222a4.886,4.886,0,0,0-6.909,0,4.886,4.886,0,0,0,0,6.909,4.886,4.886,0,0,0,6.909,0,4.882,4.882,0,0,0,1.434-3.457,4.882,4.882,0,0,0-1.434-3.457Zm37.029-37.067a4.884,4.884,0,0,0-6.906,0,4.884,4.884,0,0,0,0,6.905,4.884,4.884,0,0,0,6.906,0,4.877,4.877,0,0,0,1.436-3.456,4.877,4.877,0,0,0-1.436-3.456Zm37.033-37.067a4.885,4.885,0,0,0-6.908,0,4.885,4.885,0,0,0,0,6.908,4.885,4.885,0,0,0,6.908,0,4.882,4.882,0,0,0,1.434-3.456,4.881,4.881,0,0,0-1.434-3.456Zm37.034-37.067a4.881,4.881,0,0,0-3.454-1.432,4.881,4.881,0,0,0-3.454,1.432,4.894,4.894,0,0,0,0,6.911,4.882,4.882,0,0,0,6.907,0,4.894,4.894,0,0,0,0-6.913Zm37.029-37.067a4.877,4.877,0,0,0-3.451-1.431,4.877,4.877,0,0,0-3.451,1.431,4.887,4.887,0,0,0,0,6.911,4.876,4.876,0,0,0,3.452,1.432,4.877,4.877,0,0,0,3.451-1.432,4.887,4.887,0,0,0,1.433-3.457,4.887,4.887,0,0,0-1.433-3.457Zm37.033-37.067a4.883,4.883,0,0,0-6.907,0,4.895,4.895,0,0,0,0,6.911,4.882,4.882,0,0,0,6.907,0,4.894,4.894,0,0,0,0-6.915Z" transform="translate(-1894.053 226.99)"/><path class="c" d="M2088.03,758.65c0,213.54,173.114,386.655,386.66,386.655s386.66-173.114,386.66-386.655-173.114-386.66-386.66-386.66S2088.03,545.1,2088.03,758.65Z" transform="translate(-2103.766 -218.648)"/><path class="b" d="M2039.919,1710.939a10.933,10.933,0,1,0,10.936,10.933,10.932,10.932,0,0,0-10.936-10.933Zm77.99-77.984a10.93,10.93,0,1,0,10.93,10.93A10.93,10.93,0,0,0,2117.909,1632.956Zm77.989-77.983a10.93,10.93,0,1,0,10.93,10.93,10.929,10.929,0,0,0-10.93-10.93Zm77.983-77.989a10.933,10.933,0,1,0,10.935,10.934,10.932,10.932,0,0,0-10.935-10.934ZM2351.87,1399a10.933,10.933,0,1,0,10.935,10.934A10.932,10.932,0,0,0,2351.87,1399Z" transform="translate(-2044.725 -652.121)"/><path class="b" d="M2118.919,1633.939a10.933,10.933,0,1,0,10.936,10.933,10.932,10.932,0,0,0-10.936-10.933Zm77.989-77.983a10.93,10.93,0,1,0,10.936,10.932,10.93,10.93,0,0,0-10.936-10.932Zm77.989-77.983a10.933,10.933,0,1,0,10.93,10.931,10.932,10.932,0,0,0-10.93-10.931Zm77.989-77.989a10.933,10.933,0,1,0,10.93,10.935A10.933,10.933,0,0,0,2352.886,1399.983ZM2430.875,1322a10.933,10.933,0,1,0,10.93,10.935A10.932,10.932,0,0,0,2430.875,1322Z" transform="translate(-2080.916 -616.847)"/></g></g></svg>